<?xml version="1.0" standalone="no"?>
<!DOCTYPE svg PUBLIC "-//W3C//DTD SVG 1.1//EN" "http://www.w3.org/Graphics/SVG/1.1/DTD/svg11.dtd" >
<svg xmlns="http://www.w3.org/2000/svg">
<metadata>Generated by IcoMoon</metadata>
<defs>
<font id="icomoon" horiz-adv-x="1024">
<font-face units-per-em="1024" ascent="960" descent="-64" />
<missing-glyph horiz-adv-x="1024" />
<glyph unicode="&#x20;" horiz-adv-x="512" d="" />
<glyph unicode="&#xe900;" glyph-name="catalog-add-to-wish" horiz-adv-x="1183" d="M1109.315 295.784h-73.802v-73.802c0-40.76-33.042-73.802-73.802-73.802s-73.802 33.042-73.802 73.802v0 73.802h-73.802c-40.76 0-73.802 33.042-73.802 73.802s33.042 73.802 73.802 73.802v0h73.802v73.802c0 40.76 33.042 73.802 73.802 73.802s73.802-33.042 73.802-73.802v0-73.802h73.802c40.76 0 73.802-33.042 73.802-73.802s-33.042-73.802-73.802-73.802v0zM927.32 735.126c-6.070 8.714-12.374 16.353-19.237 23.446l0.049-0.051c-32.857 33.007-78.33 53.433-128.572 53.433-0.126 0-0.253 0-0.379 0h0.020c-47.961-0.011-91.666-18.225-124.584-48.109l0.154 0.137-98.968-98.747-98.968 98.747c-32.764 29.747-76.469 47.961-124.428 47.971h-0.002c-101.174-0.686-182.926-82.861-182.926-184.132 0-50.621 20.427-96.472 53.488-129.758l-0.010 0.010 352.846-349.452 85.241 84.429c27.691-34.912 65.162-60.971 108.261-74.131l1.556-0.409c1.993-6.495 3.321-13.284 5.83-19.484l-202.734-202.955-456.759 456.981c-59.872 59.973-96.897 142.771-96.897 234.216 0 183.092 148.426 331.518 331.518 331.518 85.59 0 163.604-32.435 222.422-85.684l-0.283 0.252c58.507 53.375 136.685 86.067 222.499 86.067 162.054 0 296.878-116.587 325.17-270.46l0.31-2.031c-36.35 32.062-84.382 51.633-136.985 51.633-13.304 0-26.316-1.252-38.924-3.644l1.294 0.204z" />
<glyph unicode="&#xe901;" glyph-name="catalog-reload" horiz-adv-x="1014" d="M1014.613 870.4v0-241.493c-0.265-23.553-9.647-44.865-24.775-60.617l0.029 0.030c-15.643-15.229-37.005-24.651-60.568-24.747h-241.512c-23.553 0.265-44.865 9.647-60.617 24.775l0.030-0.029c-15.426 15.542-24.959 36.951-24.959 60.587s9.533 45.045 24.964 60.592l-0.005-0.005c15.721 15.1 37.033 24.482 60.535 24.746h29.919c-57.084 46.459-130.592 74.724-210.692 75.093h-0.081c-94.245-0.174-179.557-38.279-241.511-99.857l0.017 0.017c-14.824-12.753-34.258-20.519-55.506-20.519-47.128 0-85.333 38.205-85.333 85.333 0 21.248 7.766 40.681 20.613 55.618l-0.094-0.112c91.921 92.753 219.353 150.178 360.198 150.178 130.4 0 249.302-49.224 339.14-130.104l-0.458 0.406v40.107c0.096 23.582 9.517 44.944 24.766 60.606l-0.019-0.019c15.542 15.426 36.951 24.959 60.587 24.959s45.045-9.533 60.592-24.964l-0.005 0.005c15.229-15.643 24.651-37.005 24.747-60.568v-0.019zM386.56 206.507c-15.721-15.1-37.033-24.482-60.535-24.746h-29.919c57.084-46.459 130.592-74.724 210.692-75.093h0.081c94.245 0.174 179.557 38.279 241.511 99.857l-0.017-0.017c14.824 12.753 34.258 20.519 55.506 20.519 47.128 0 85.333-38.205 85.333-85.333 0-21.248-7.766-40.681-20.613-55.618l0.094 0.112c-91.921-92.753-219.353-150.178-360.198-150.178-130.4 0-249.302 49.224-339.14 130.104l0.458-0.406v-40.107c-0.096-23.582-9.517-44.944-24.766-60.606l0.019 0.019c-15.542-15.426-36.951-24.959-60.587-24.959s-45.045 9.533-60.592 24.964l0.005-0.005c-15.229 15.643-24.651 37.005-24.747 60.568v241.512c-0.003 0.255-0.004 0.556-0.004 0.858 0 46.657 37.823 84.48 84.48 84.48 0.302 0 0.603-0.002 0.904-0.005h241.447c23.553-0.265 44.865-9.647 60.617-24.775l-0.030 0.029c15.426-15.542 24.959-36.951 24.959-60.587s-9.533-45.045-24.964-60.592l0.005 0.005z" />
<glyph unicode="&#xe902;" glyph-name="filter-minus" d="M512 960v0c-282.77 0-512-229.23-512-512v0c0-282.77 229.23-512 512-512s512 229.23 512 512c0 282.77-229.23 512-512 512zM512 832c212.077 0 384-171.923 384-384s-171.923-384-384-384c-212.077 0-384 171.923-384 384v0c0 212.077 171.923 384 384 384v0zM640 512c35.346 0 64-28.654 64-64s-28.654-64-64-64v0h-256c-35.346 0-64 28.654-64 64s28.654 64 64 64v0h256z" />
<glyph unicode="&#xe903;" glyph-name="filter-plus" d="M512 960v0c-282.77 0-512-229.23-512-512v0c0-282.77 229.23-512 512-512s512 229.23 512 512c0 282.77-229.23 512-512 512zM512 832c212.077 0 384-171.923 384-384s-171.923-384-384-384c-212.077 0-384 171.923-384 384v0c0 212.077 171.923 384 384 384v0zM640 512c35.346 0 64-28.654 64-64s-28.654-64-64-64v0h-64v-64c0-35.346-28.654-64-64-64s-64 28.654-64 64v0 64h-64c-35.346 0-64 28.654-64 64s28.654 64 64 64v0h64v64c0 35.346 28.654 64 64 64s64-28.654 64-64v0-64h64z" />
<glyph unicode="&#xe904;" glyph-name="bag" d="M896-64h-768c-70.692 0-128 57.308-128 128v0l64 384c7.445 67.485 60.515 120.555 127.352 127.942l0.648 0.058h640c70.692 0 128-57.308 128-128v0l64-384c0-70.692-57.308-128-128-128v0zM832.64 448h-641.28l-63.36-384h767.36zM704 320v0c35.346 0 64 28.654 64 64v320c0 141.385-114.615 256-256 256s-256-114.615-256-256v-320c0-35.346 28.654-64 64-64s64 28.654 64 64v320c0 70.692 57.308 128 128 128s128-57.308 128-128v-320c0-35.346 28.654-64 64-64z" />
<glyph unicode="&#xe905;" glyph-name="basket-user" d="M960 480h-15.744l-114.752-401.28h-1.024c-7.407-26.99-31.636-46.526-60.458-46.72h-512.022c-28.87 0.164-53.131 19.71-60.44 46.277l-0.104 0.443h-1.024l-114.752 401.28h-15.68c-35.346 0-64 28.654-64 64s28.654 64 64 64v0h152.448l110.272 220.8 0.576-0.64c10.44 21.262 31.869 35.675 56.682 35.84h0.022c35.346 0 64-28.654 64-64v0c-0.157-10.344-2.865-20.021-7.519-28.475l0.159 0.315 0.576-0.64-81.664-163.2h304.896l-81.728 163.2 0.576 0.64c-4.446 8.15-7.128 17.824-7.295 28.109l-0.001 0.051c0 35.346 28.654 64 64 64v0c24.824-0.142 46.245-14.567 56.475-35.467l0.165-0.373 0.576 0.64 110.336-220.8h152.448c35.346 0 64-28.654 64-64s-28.654-64-64-64v0zM304.256 160h415.424l91.456 320h-598.272z" />
<glyph unicode="&#xe906;" glyph-name="cart-remove-icon" horiz-adv-x="1020" d="M35.579 925.569v0c20.621 20.688 49.144 33.488 80.658 33.488s60.037-12.8 80.655-33.485l783.752-784.262c20.663-20.751 33.438-49.372 33.438-80.976s-12.774-60.225-33.442-80.98l0.004 0.004c-20.432-20.594-48.745-33.342-80.035-33.342-31.917 0-60.736 13.264-81.245 34.581l-0.035 0.036-783.749 784.259c-20.621 20.533-33.381 48.946-33.381 80.339s12.76 59.806 33.377 80.335l0.004 0.004zM986.636 928.12v0c-20.908 20.685-49.673 33.463-81.423 33.463s-60.515-12.779-81.433-33.474l0.010 0.010-791.4-793.186c-20.848-20.666-33.756-49.314-33.756-80.976s12.907-60.31 33.748-80.968l0.008-0.008c20.789-20.892 49.564-33.82 81.359-33.82s60.57 12.929 81.354 33.816l791.405 791.915c20.867 20.92 33.769 49.792 33.769 81.678 0 31.822-12.851 60.643-33.647 81.555l0.005-0.005z" />
<glyph unicode="&#xe907;" glyph-name="filter-display-4item-icon" d="M832-64h-640c-106.039 0-192 85.961-192 192v0 640c0 106.039 85.961 192 192 192v0h640c106.039 0 192-85.961 192-192v0-640c0-106.039-85.961-192-192-192v0zM896 768c0 35.346-28.654 64-64 64v0h-640c-35.346 0-64-28.654-64-64v0-640c0-35.346 28.654-64 64-64v0h640c35.346 0 64 28.654 64 64v0 640zM576 384h192v-192h-192v192zM640 256h64v64h-64v-64zM576 704h192v-192h-192v192zM640 576h64v64h-64v-64zM256 384h192v-192h-192v192zM320 256h64v64h-64v-64zM256 704h192v-192h-192v192zM320 576h64v64h-64v-64z" />
<glyph unicode="&#xe908;" glyph-name="filter-display-6item-icon" d="M192 960v0c-106.039 0-192-85.961-192-192v-640c0-106.039 85.961-192 192-192h640c106.039 0 192 85.961 192 192v640c0 106.039-85.961 192-192 192h-640zM192 832h640c35.346 0 64-28.654 64-64v0-640c0-35.346-28.654-64-64-64v0h-640c-35.346 0-64 28.654-64 64v0 640c0 35.346 28.654 64 64 64v0zM256 704v-128h128v128h-128zM256 512v-128h128v128h-128zM256 320v-128h128v128h-128zM448 704v-128h128v128h-128zM448 512v-128h128v128h-128zM448 320v-128h128v128h-128zM640 704v-128h128v128h-128zM640 512v-128h128v128h-128zM640 320v-128h128v128h-128z" />
<glyph unicode="&#xe90a;" glyph-name="filter-main-icon" horiz-adv-x="896" d="M768 448c-70.692 0-128 57.308-128 128v0 64c0 70.692 57.308 128 128 128s128-57.308 128-128v0-64c0-70.692-57.308-128-128-128v0zM704 820.224v75.776c0 35.346 28.654 64 64 64s64-28.654 64-64v0-75.776c-19.019 7.476-41.046 11.81-64.084 11.81-22.975 0-44.944-4.31-65.141-12.165l1.225 0.419zM448 128c-70.692 0-128 57.308-128 128v0 64c0 70.692 57.308 128 128 128s128-57.308 128-128v0-64c0-70.692-57.308-128-128-128v0zM384 500.224v395.776c0 35.346 28.654 64 64 64s64-28.654 64-64v0-395.776c-19.019 7.476-41.046 11.81-64.084 11.81-22.975 0-44.944-4.31-65.141-12.165l1.225 0.419zM128 448c-70.692 0-128 57.308-128 128v0 64c0 70.692 57.308 128 128 128s128-57.308 128-128v0-64c0-70.692-57.308-128-128-128v0zM64 820.224v75.776c0 35.346 28.654 64 64 64s64-28.654 64-64v0-75.776c-19.020 7.473-41.046 11.805-64.084 11.805-22.975 0-44.943-4.308-65.142-12.161l1.226 0.419zM192 395.776v-395.776c0-35.346-28.654-64-64-64s-64 28.654-64 64v0 395.776c18.973-7.433 40.941-11.741 63.916-11.741 23.038 0 45.064 4.332 65.309 12.226l-1.225-0.42zM512 75.776v-75.776c0-35.346-28.654-64-64-64s-64 28.654-64 64v0 75.776c18.972-7.436 40.941-11.746 63.916-11.746 23.038 0 45.065 4.334 65.308 12.23l-1.224-0.42zM832 395.776v-395.776c0-35.346-28.654-64-64-64s-64 28.654-64 64v0 395.776c18.972-7.436 40.941-11.746 63.916-11.746 23.038 0 45.065 4.334 65.308 12.23l-1.224-0.42z" />
<glyph unicode="&#xe90b;" glyph-name="gear-user" horiz-adv-x="896" d="M833.6 530.56v0l-9.6-5.76c4.958-23.031 7.865-49.537 8-76.698v-0.102c-0.008-26.966-2.828-53.268-8.181-78.636l0.437 2.476 9.6-5.76v-0.64c37.911-22.591 62.912-63.374 62.912-109.996 0-70.48-57.136-127.616-127.616-127.616-24.619 0-47.61 6.971-67.106 19.047l0.546-0.315-11.136 6.4c-32.701-27.39-70.933-49.541-112.603-64.468l-2.597-0.812v-23.68c0-70.692-57.308-128-128-128s-128 57.308-128 128v0 23.68c-44.271 15.721-82.505 37.874-115.779 65.752l0.579-0.472-11.136-6.4c-19.185-12.154-42.544-19.367-67.588-19.367-70.48 0-127.616 57.136-127.616 127.616 0 47.066 25.479 88.181 63.397 110.305l0.606 0.327v0.64l9.536 5.76c-5.067 22.816-8.064 49.084-8.255 76.019l-0.001 0.141c0.018 27.191 2.814 53.719 8.118 79.328l-0.438-2.528-9.536 5.76c-38.524 22.45-64.004 63.565-64.004 110.631 0 70.48 57.136 127.616 127.616 127.616 25.044 0 48.403-7.214 68.112-19.677l-0.524 0.31v0.64l11.136-7.040c32.695 27.407 70.93 49.56 112.609 64.471l2.591 0.809v23.68c0 70.692 57.308 128 128 128s128-57.308 128-128v0-23.68c44.267-15.739 82.499-37.89 115.783-65.755l-0.583 0.475 11.136 7.040v-0.64c18.774 11.465 41.49 18.254 65.792 18.254 70.523 0 127.694-57.17 127.694-127.694 0-46.222-24.558-86.708-61.339-109.121l-0.563-0.319zM448 704c-141.385 0-256-114.615-256-256s114.615-256 256-256c141.385 0 256 114.615 256 256v0c0 141.385-114.615 256-256 256v0zM448 320c-70.692 0-128 57.308-128 128s57.308 128 128 128c70.692 0 128-57.308 128-128v0c0-70.692-57.308-128-128-128v0z" />
<glyph unicode="&#xe90c;" glyph-name="heart-user" d="M934.844 401.579l-422.434-422.571-422.502 422.571c-55.122 55.441-89.194 131.862-89.194 216.241 0 169.398 137.324 306.722 306.722 306.722 78.928 0 150.893-29.812 205.249-78.79l-0.275 0.243c54.245 49.426 126.697 79.695 206.219 79.695 169.36 0 306.654-137.294 306.654-306.654 0-84.989-34.574-161.903-90.425-217.443l-0.014-0.014zM840.021 739.499c-30.159 30.363-71.932 49.156-118.094 49.156-0.411 0-0.821-0.001-1.231-0.004h0.063c-0.028 0-0.062 0-0.095 0-44.335 0-84.734-16.851-115.142-44.498l0.14 0.125-91.546-90.795-91.546 90.795c-30.268 27.522-70.667 44.373-115.003 44.373-0.033 0-0.067 0-0.1 0h0.005c-0.334 0.002-0.728 0.004-1.123 0.004-46.198 0-88.007-18.792-118.2-49.148l-0.007-0.007c-30.894-30.886-50.004-73.56-50.004-120.696 0-46.932 18.944-89.44 49.603-120.294l-0.009 0.009 326.383-322.901 325.905 322.219c30.877 30.945 49.97 73.659 49.97 120.832s-19.093 89.887-49.973 120.835l0.003-0.003z" />
<glyph unicode="&#xe90d;" glyph-name="location" horiz-adv-x="768" d="M384-64s-384 427.904-384 640c0 212.077 171.923 384 384 384s384-171.923 384-384v0c0-212.096-384-640-384-640zM385.28 832c-141.385 0-256-114.615-256-256v0c0-81.6 120.32-272.128 256-441.6 135.68 169.664 256 360.192 256 441.6 0 141.385-114.615 256-256 256v0zM320 576c0 35.346 28.654 64 64 64s64-28.654 64-64c0-35.346-28.654-64-64-64v0c-35.346 0-64 28.654-64 64v0z" />
<glyph unicode="&#xe90e;" glyph-name="power-user" d="M849.852 75.947c-86.481-86.481-205.954-139.971-337.92-139.971-263.932 0-477.891 213.959-477.891 477.891 0 131.966 53.49 251.439 139.971 337.92v0l48.265 48.469c12.368 12.317 29.427 19.932 48.265 19.932 37.777 0 68.401-30.624 68.401-68.401 0-18.939-7.697-36.081-20.134-48.467l-0.002-0.002-48.265-47.787c-61.771-61.77-99.977-147.104-99.977-241.361 0-188.513 152.82-341.333 341.333-341.333s341.333 152.82 341.333 341.333c0 94.258-38.206 179.592-99.977 241.362v0l-48.265 47.787c-12.439 12.388-20.137 29.53-20.137 48.469 0 37.777 30.624 68.401 68.401 68.401 18.838 0 35.897-7.615 48.267-19.934l-0.002 0.002 48.265-48.469c86.508-86.482 140.015-205.969 140.015-337.954 0-131.951-53.48-251.411-139.947-337.886v0zM512 550.4c-37.703 0-68.267 30.564-68.267 68.267v0 273.067c0 37.703 30.564 68.267 68.267 68.267s68.267-30.564 68.267-68.267v0-273.067c0-37.703-30.564-68.267-68.267-68.267v0z" />
<glyph unicode="&#xe90f;" glyph-name="Right-copy-5" d="M28.843 598.699v0c-17.909 20.254-28.844 47.038-28.844 76.377 0 0.209 0.001 0.417 0.002 0.626v-0.032c-0.010 0.564-0.016 1.229-0.016 1.896 0 61.024 48.897 110.627 109.648 111.767l0.107 0.002c32.153-0.196 60.922-14.519 80.44-37.070l0.114-0.135 321.707-363.179 321.365 363.691c19.75 22.539 48.593 36.693 80.741 36.693 0.055 0 0.109 0 0.164 0h-0.008c60.859-1.14 109.758-50.744 109.758-111.768 0-0.727-0.007-1.452-0.021-2.175l0.002 0.108c-0.035-29.472-11.098-56.352-29.284-76.743l0.1 0.114-402.261-455.168c-19.756-22.644-48.665-36.871-80.896-36.871s-61.14 14.227-80.787 36.744l-0.109 0.127z" />
<glyph unicode="&#xe910;" glyph-name="search" d="M1006.080-45.888c-11.649-11.584-27.709-18.745-45.44-18.745s-33.79 7.161-45.443 18.748l-201.597 201.597c-73.498-55.138-166.243-88.294-266.733-88.294-246.893 0-447.040 200.147-447.040 447.040s200.147 447.040 447.040 447.040c246.893 0 447.040-200.147 447.040-447.040 0-101.155-33.597-194.463-90.242-269.374l0.814 1.124 201.6-201.6c11.578-11.581 18.738-27.578 18.738-45.248s-7.161-33.667-18.739-45.248v0zM673.28 739.456c-57.909 57.91-137.91 93.728-226.276 93.728-176.731 0-320-143.269-320-320s143.269-320 320-320c88.367 0 168.368 35.818 226.276 93.728v0c57.907 57.908 93.724 137.907 93.724 226.272s-35.816 168.363-93.724 226.272v0z" />
<glyph unicode="&#xe911;" glyph-name="sort-one-arrow-icon" d="M614.4 285.696l30.003 30.003c18.532 18.519 44.127 29.973 72.397 29.973 56.565 0 102.421-45.855 102.421-102.421 0-28.295-11.474-53.911-30.023-72.447l-204.801-204.801c-18.53-18.524-44.125-29.981-72.397-29.981s-53.867 11.457-72.397 29.982l-204.8 204.8c-18.55 18.537-30.024 44.153-30.024 72.448 0 56.565 45.855 102.421 102.421 102.421 28.27 0 53.865-11.453 72.397-29.973l30.003-30.003v571.904c0 56.554 45.846 102.4 102.4 102.4s102.4-45.846 102.4-102.4v0-572.006z" />
<glyph unicode="&#xe912;" glyph-name="sort-two-arrow-icon" d="M1024 618.667c-0.010-47.12-38.211-85.315-85.333-85.315-23.56 0-44.889 9.548-60.331 24.985l-25.003 25.003v-476.672c0-47.128-38.205-85.333-85.333-85.333s-85.333 38.205-85.333 85.333v0 476.672l-25.003-25.003c-15.443-15.433-36.772-24.977-60.331-24.977-47.138 0-85.351 38.213-85.351 85.351 0 23.58 9.562 44.926 25.020 60.373l170.667 170.667c15.441 15.437 36.771 24.984 60.331 24.984s44.889-9.548 60.331-24.985l170.666-170.666c15.448-15.443 25.003-36.78 25.003-60.349 0-0.024 0-0.047 0-0.071v0.004zM341.333 312.747l25.003 25.003c15.443 15.433 36.772 24.977 60.331 24.977 47.138 0 85.351-38.213 85.351-85.351 0-23.58-9.562-44.926-25.020-60.373l-170.667-170.667c-15.441-15.437-36.771-24.984-60.331-24.984s-44.889 9.548-60.331 24.985l-170.666 170.666c-15.458 15.448-25.020 36.794-25.020 60.373 0 47.138 38.213 85.351 85.351 85.351 23.558 0 44.887-9.545 60.331-24.978l25.002-25.002v476.587c0 47.128 38.205 85.333 85.333 85.333s85.333-38.205 85.333-85.333v0-476.672z" />
<glyph unicode="&#xe913;" glyph-name="user" d="M921.6-64c-37.703 0-68.267 30.564-68.267 68.267v0c-0.254 97.957-41.889 186.139-108.339 248.029l-0.205 0.189c-55.143-68.357-138.903-111.718-232.789-111.718s-177.646 43.36-232.344 111.148l-0.445 0.57c-66.839-61.856-108.544-150.041-108.544-247.967 0-0.088 0-0.176 0-0.265v0.014c0-37.703-30.564-68.267-68.267-68.267s-68.267 30.564-68.267 68.267v0c0.496 146.67 67.277 277.643 171.935 364.597l0.779 0.629c-22.782 53.444-36.073 115.608-36.181 180.865v0.042c0 226.236 152.917 409.6 341.333 409.6s341.333-183.433 341.333-409.6c0-0.022 0-0.048 0-0.074 0-65.327-13.56-127.487-38.019-183.819l1.155 2.986c105.865-87.343 172.956-218.405 173.397-365.151v-0.075c0-37.703-30.564-68.267-68.267-68.267v0zM512 823.467c-113.323 0-204.8-122.266-204.8-273.067s91.477-273.067 204.8-273.067 204.8 122.266 204.8 273.067-91.477 273.067-204.8 273.067z" />
<glyph unicode="&#xe914;" glyph-name="check" horiz-adv-x="1365" d="M1315.328 668.672v0l-682.667-682.667c-30.883-30.874-73.542-49.969-120.661-49.969s-89.779 19.095-120.662 49.969l-341.333 341.333c-30.916 30.895-50.040 73.588-50.040 120.747 0 94.276 76.426 170.701 170.701 170.701 47.117 0 89.775-19.089 120.662-49.955l220.671-220.671 562.005 562.005c30.887 30.865 73.545 49.955 120.661 49.955 94.276 0 170.701-76.426 170.701-170.701 0-47.159-19.124-89.852-50.039-120.746l-0.001-0.001z" />
</font>
</defs>
</svg>
