<svg width="14" height="14" viewBox="0 0 14 14" fill="none" xmlns="http://www.w3.org/2000/svg">
<path fill-rule="evenodd" clip-rule="evenodd" d="M13.3522 0.744904C13.0875 0.475681 12.74 0.340515 12.3924 0.340515C12.0449 0.340515 11.6974 0.475681 11.4327 0.744904C11.4327 0.744904 11.4131 0.763738 11.388 0.790328C11.3869 0.791436 11.3855 0.792267 11.3842 0.793098C11.3828 0.793929 11.3815 0.79476 11.3804 0.795868L1.56263 10.7793C1.52886 10.8147 1.5038 10.8579 1.49073 10.9067L0.930774 13.0306C0.904628 13.1281 0.931864 13.2322 1.00268 13.3042C1.05606 13.3585 1.12687 13.3873 1.19986 13.3873C1.22382 13.3873 1.24779 13.384 1.27176 13.3773L3.36015 12.8079C3.40809 12.7946 3.45057 12.7691 3.48543 12.7336L13.3021 2.75134C13.3041 2.74926 13.3053 2.74674 13.3065 2.74433C13.3071 2.7429 13.3078 2.7415 13.3086 2.74026L13.3511 2.69705C13.8827 2.15749 13.8827 1.28335 13.3522 0.744904ZM12.9579 1.14598C13.2695 1.46284 13.2695 1.97913 12.9579 2.29599C12.8945 2.35968 12.8378 2.41766 12.7866 2.46993L12.7193 2.53863L11.5885 1.38861L11.8271 1.14598C11.9774 0.991977 12.179 0.907776 12.3925 0.907776C12.606 0.907776 12.8065 0.993085 12.9579 1.14598ZM2.8314 12.3647L1.92719 11.4451L1.59492 12.7026L2.8314 12.3647Z" fill="white"/>
</svg>
