<svg xmlns="http://www.w3.org/2000/svg" width="16" height="16" viewBox="0 0 16 16">
  <metadata><?xpacket begin="﻿" id="W5M0MpCehiHzreSzNTczkc9d"?>
<x:xmpmeta xmlns:x="adobe:ns:meta/" x:xmptk="Adobe XMP Core 5.6-c138 79.159824, 2016/09/14-01:09:01        ">
   <rdf:RDF xmlns:rdf="http://www.w3.org/1999/02/22-rdf-syntax-ns#">
      <rdf:Description rdf:about=""/>
   </rdf:RDF>
</x:xmpmeta>
                                                                                                    
                                                                                                    
                                                                                                    
                                                                                                    
                                                                                                    
                                                                                                    
                                                                                                    
                                                                                                    
                                                                                                    
                                                                                                    
                                                                                                    
                                                                                                    
                                                                                                    
                                                                                                    
                                                                                                    
                                                                                                    
                                                                                                    
                                                                                                    
                                                                                                    
                                                                                                    
                           
<?xpacket end="w"?></metadata>
<defs>
    <style>
      .cls-1 {
        fill: #222;
        fill-rule: evenodd;
      }
    </style>
  </defs>
  <path id="bag_copy_4" data-name="bag copy 4" class="cls-1" d="M1794,48h-12a2,2,0,0,1-2-2l1-6a2.253,2.253,0,0,1,2-2h10a2,2,0,0,1,2,2l1,6A2,2,0,0,1,1794,48Zm-0.99-8h-10.02L1782,46h11.99ZM1791,42a1,1,0,0,1-1-1V36a2,2,0,1,0-4,0v5a1,1,0,1,1-2,0V36a4,4,0,1,1,8,0v5A1,1,0,0,1,1791,42Z" transform="translate(-1780 -32)"/>
</svg>
