<svg xmlns="http://www.w3.org/2000/svg" width="16.031" height="13.875" viewBox="0 0 16.031 13.875">
  <metadata><?xpacket begin="﻿" id="W5M0MpCehiHzreSzNTczkc9d"?>
<x:xmpmeta xmlns:x="adobe:ns:meta/" x:xmptk="Adobe XMP Core 5.6-c138 79.159824, 2016/09/14-01:09:01        ">
   <rdf:RDF xmlns:rdf="http://www.w3.org/1999/02/22-rdf-syntax-ns#">
      <rdf:Description rdf:about=""/>
   </rdf:RDF>
</x:xmpmeta>
                                                                                                    
                                                                                                    
                                                                                                    
                                                                                                    
                                                                                                    
                                                                                                    
                                                                                                    
                                                                                                    
                                                                                                    
                                                                                                    
                                                                                                    
                                                                                                    
                                                                                                    
                                                                                                    
                                                                                                    
                                                                                                    
                                                                                                    
                                                                                                    
                                                                                                    
                                                                                                    
                           
<?xpacket end="w"?></metadata>
<defs>
    <style>
      .cls-1 {
        fill: #d5d5d5;
        fill-rule: evenodd;
      }
    </style>
  </defs>
  <path id="heart-plus_copy_2" data-name="heart-plus copy 2" class="cls-1" d="M565,540h-1v1a1,1,0,0,1-2,0v-1h-1a1,1,0,0,1,0-2h1v-1a1,1,0,0,1,2,0v1h1A1,1,0,0,1,565,540Zm-2.466-5.953a2.517,2.517,0,0,0-.26-0.317,2.458,2.458,0,0,0-1.747-.724,2.513,2.513,0,0,0-1.686.65l-1.341,1.338-1.341-1.338a2.513,2.513,0,0,0-1.686-.65,2.495,2.495,0,0,0-1.754,4.253l4.781,4.735,1.155-1.144a2.976,2.976,0,0,0,1.488,1.01c0.027,0.088.045,0.18,0.079,0.264l-2.747,2.75-6.189-6.192a4.492,4.492,0,0,1,6.189-6.508A4.48,4.48,0,0,1,564.9,534.7,2.812,2.812,0,0,0,562.534,534.047Z" transform="translate(-549.969 -531)"/>
</svg>
