<svg xmlns="http://www.w3.org/2000/svg" width="11.88" height="12" viewBox="0 0 11.88 12">
  <metadata><?xpacket begin="﻿" id="W5M0MpCehiHzreSzNTczkc9d"?>
<x:xmpmeta xmlns:x="adobe:ns:meta/" x:xmptk="Adobe XMP Core 5.6-c138 79.159824, 2016/09/14-01:09:01        ">
   <rdf:RDF xmlns:rdf="http://www.w3.org/1999/02/22-rdf-syntax-ns#">
      <rdf:Description rdf:about=""/>
   </rdf:RDF>
</x:xmpmeta>
                                                                                                    
                                                                                                    
                                                                                                    
                                                                                                    
                                                                                                    
                                                                                                    
                                                                                                    
                                                                                                    
                                                                                                    
                                                                                                    
                                                                                                    
                                                                                                    
                                                                                                    
                                                                                                    
                                                                                                    
                                                                                                    
                                                                                                    
                                                                                                    
                                                                                                    
                                                                                                    
                           
<?xpacket end="w"?></metadata>
<defs>
    <style>
      .cls-1 {
        fill: #3d3d3d;
        fill-rule: evenodd;
      }
    </style>
  </defs>
  <path id="reload" class="cls-1" d="M1040.95,1784.05h0v2.83h0a1.042,1.042,0,0,1-.29.71,1.024,1.024,0,0,1-.71.29h-2.83a1.042,1.042,0,0,1-.71-0.29,1.008,1.008,0,0,1,0-1.42,1.042,1.042,0,0,1,.71-0.29h0.35a3.956,3.956,0,0,0-2.47-.88,4.025,4.025,0,0,0-2.83,1.17h0a1,1,0,0,1-1.41-1.41h0a5.942,5.942,0,0,1,8.19-.24v-0.47h0a1.024,1.024,0,0,1,.29-0.71,1.008,1.008,0,0,1,1.42,0A1.024,1.024,0,0,1,1040.95,1784.05Zm-7.36,7.78a1.042,1.042,0,0,1-.71.29h-0.35a3.956,3.956,0,0,0,2.47.88,4.025,4.025,0,0,0,2.83-1.17h0a1,1,0,0,1,1.41,1.41h0a5.942,5.942,0,0,1-8.19.24v0.47h0a1.024,1.024,0,0,1-.29.71,1.008,1.008,0,0,1-1.42,0,1.024,1.024,0,0,1-.29-0.71h0v-2.83h0a0.99,0.99,0,0,1,1-1h2.83a1.042,1.042,0,0,1,.71.29A1.008,1.008,0,0,1,1033.59,1791.83Z" transform="translate(-1029.06 -1783)"/>
</svg>
