<svg xmlns="http://www.w3.org/2000/svg" width="14" height="16" viewBox="0 0 14 16">
  <metadata><?xpacket begin="﻿" id="W5M0MpCehiHzreSzNTczkc9d"?>
<x:xmpmeta xmlns:x="adobe:ns:meta/" x:xmptk="Adobe XMP Core 5.6-c138 79.159824, 2016/09/14-01:09:01        ">
   <rdf:RDF xmlns:rdf="http://www.w3.org/1999/02/22-rdf-syntax-ns#">
      <rdf:Description rdf:about=""/>
   </rdf:RDF>
</x:xmpmeta>
                                                                                                    
                                                                                                    
                                                                                                    
                                                                                                    
                                                                                                    
                                                                                                    
                                                                                                    
                                                                                                    
                                                                                                    
                                                                                                    
                                                                                                    
                                                                                                    
                                                                                                    
                                                                                                    
                                                                                                    
                                                                                                    
                                                                                                    
                                                                                                    
                                                                                                    
                                                                                                    
                           
<?xpacket end="w"?></metadata>
<defs>
    <style>
      .cls-1 {
        fill: #d5d5d5;
        fill-rule: evenodd;
      }
    </style>
  </defs>
  <path id="sliders" class="cls-1" d="M42,290a2,2,0,0,1-2-2v-1a2,2,0,1,1,4,0v1A2,2,0,0,1,42,290Zm-1-5.816V283a1,1,0,0,1,2,0v1.184A2.809,2.809,0,0,0,41,284.183ZM37,295a2,2,0,0,1-2-2v-1a2,2,0,1,1,4,0v1A2,2,0,0,1,37,295Zm-1-5.816V283a1,1,0,0,1,2,0v6.184A2.809,2.809,0,0,0,36,289.183ZM32,290a2,2,0,0,1-2-2v-1a2,2,0,1,1,4,0v1A2,2,0,0,1,32,290Zm-1-5.816V283a1,1,0,0,1,2,0v1.184A2.81,2.81,0,0,0,31,284.183Zm2,6.632V297a1,1,0,0,1-2,0v-6.184A2.81,2.81,0,0,0,33,290.815Zm5,5V297a1,1,0,1,1-2,0v-1.184A2.809,2.809,0,0,0,38,295.815Zm5-5V297a1,1,0,0,1-2,0v-6.184A2.809,2.809,0,0,0,43,290.815Z" transform="translate(-30 -282)"/>
</svg>
