<svg xmlns="http://www.w3.org/2000/svg" width="16" height="16" viewBox="0 0 16 16">
  <metadata><?xpacket begin="﻿" id="W5M0MpCehiHzreSzNTczkc9d"?>
<x:xmpmeta xmlns:x="adobe:ns:meta/" x:xmptk="Adobe XMP Core 5.6-c138 79.159824, 2016/09/14-01:09:01        ">
   <rdf:RDF xmlns:rdf="http://www.w3.org/1999/02/22-rdf-syntax-ns#">
      <rdf:Description rdf:about=""/>
   </rdf:RDF>
</x:xmpmeta>
                                                                                                    
                                                                                                    
                                                                                                    
                                                                                                    
                                                                                                    
                                                                                                    
                                                                                                    
                                                                                                    
                                                                                                    
                                                                                                    
                                                                                                    
                                                                                                    
                                                                                                    
                                                                                                    
                                                                                                    
                                                                                                    
                                                                                                    
                                                                                                    
                                                                                                    
                                                                                                    
                           
<?xpacket end="w"?></metadata>
<defs>
    <style>
      .cls-1 {
        fill: #222;
        fill-rule: evenodd;
      }
    </style>
  </defs>
  <path id="List_copy" data-name="List copy" class="cls-1" d="M901,298H891a3,3,0,0,1-3-3V285a3,3,0,0,1,3-3h10a3,3,0,0,1,3,3v10A3,3,0,0,1,901,298Zm1-13a1,1,0,0,0-1-1H891a1,1,0,0,0-1,1v10a1,1,0,0,0,1,1h10a1,1,0,0,0,1-1V285Zm-5,6h3v3h-3v-3Zm1,2h1v-1h-1v1Zm-1-7h3v3h-3v-3Zm1,2h1v-1h-1v1Zm-6,3h3v3h-3v-3Zm1,2h1v-1h-1v1Zm-1-7h3v3h-3v-3Zm1,2h1v-1h-1v1Z" transform="translate(-888 -282)"/>
</svg>
