<svg xmlns="http://www.w3.org/2000/svg" width="16" height="16" viewBox="0 0 16 16">
  <metadata><?xpacket begin="﻿" id="W5M0MpCehiHzreSzNTczkc9d"?>
<x:xmpmeta xmlns:x="adobe:ns:meta/" x:xmptk="Adobe XMP Core 5.6-c138 79.159824, 2016/09/14-01:09:01        ">
   <rdf:RDF xmlns:rdf="http://www.w3.org/1999/02/22-rdf-syntax-ns#">
      <rdf:Description rdf:about=""/>
   </rdf:RDF>
</x:xmpmeta>
                                                                                                    
                                                                                                    
                                                                                                    
                                                                                                    
                                                                                                    
                                                                                                    
                                                                                                    
                                                                                                    
                                                                                                    
                                                                                                    
                                                                                                    
                                                                                                    
                                                                                                    
                                                                                                    
                                                                                                    
                                                                                                    
                                                                                                    
                                                                                                    
                                                                                                    
                                                                                                    
                           
<?xpacket end="w"?></metadata>
<defs>
    <style>
      .cls-1 {
        fill: #d5d5d5;
        fill-rule: evenodd;
      }
    </style>
  </defs>
  <path id="List" class="cls-1" d="M1851,282h10a3,3,0,0,1,3,3v10a3,3,0,0,1-3,3h-10a3,3,0,0,1-3-3V285A3,3,0,0,1,1851,282Zm0,2h10a1,1,0,0,1,1,1v10a1,1,0,0,1-1,1h-10a1,1,0,0,1-1-1V285A1,1,0,0,1,1851,284Zm1,2h2v2h-2v-2Zm0,3h2v2h-2v-2Zm0,3h2v2h-2v-2Zm3-6h2v2h-2v-2Zm0,3h2v2h-2v-2Zm0,3h2v2h-2v-2Zm3-6h2v2h-2v-2Zm0,3h2v2h-2v-2Zm0,3h2v2h-2v-2Z" transform="translate(-1848 -282)"/>
</svg>
