<svg xmlns="http://www.w3.org/2000/svg" xmlns:xlink="http://www.w3.org/1999/xlink" width="12" height="10" viewBox="0 0 12 10">
  <metadata><?xpacket begin="﻿" id="W5M0MpCehiHzreSzNTczkc9d"?>
<x:xmpmeta xmlns:x="adobe:ns:meta/" x:xmptk="Adobe XMP Core 5.6-c138 79.159824, 2016/09/14-01:09:01        ">
   <rdf:RDF xmlns:rdf="http://www.w3.org/1999/02/22-rdf-syntax-ns#">
      <rdf:Description rdf:about=""/>
   </rdf:RDF>
</x:xmpmeta>
                                                                                                    
                                                                                                    
                                                                                                    
                                                                                                    
                                                                                                    
                                                                                                    
                                                                                                    
                                                                                                    
                                                                                                    
                                                                                                    
                                                                                                    
                                                                                                    
                                                                                                    
                                                                                                    
                                                                                                    
                                                                                                    
                                                                                                    
                                                                                                    
                                                                                                    
                                                                                                    
                           
<?xpacket end="w"?></metadata>
<defs>
    <style>
      .cls-1 {
        fill: #1f4ba5;
        fill-rule: evenodd;
        filter: url(#filter);
      }
    </style>
    <filter id="filter" x="545" y="285" width="12" height="10" filterUnits="userSpaceOnUse">
      <feFlood result="flood" flood-color="#d5d5d5"/>
      <feComposite result="composite" operator="in" in2="SourceGraphic"/>
      <feBlend result="blend" in2="SourceGraphic"/>
    </filter>
  </defs>
  <path id="data_transmission_copy_2" data-name="data transmission copy 2" class="cls-1" d="M557,288a1,1,0,0,1-1.707.707h0L555,288.414V294a1,1,0,0,1-2,0v-5.586l-0.293.293h0a1,1,0,0,1-1.414-1.415h0l2-2h0a1,1,0,0,1,1.414,0h0l2,2h0A1,1,0,0,1,557,288Zm-8,3.585,0.293-.293h0a1,1,0,0,1,1.414,1.415h0l-2,2h0a1,1,0,0,1-1.414,0h0l-2-2h0a1,1,0,1,1,1.414-1.415h0L547,291.585V286a1,1,0,0,1,2,0v5.586Z" transform="translate(-545 -285)"/>
</svg>
