<svg xmlns="http://www.w3.org/2000/svg" width="14" height="15" viewBox="0 0 14 15">
  <metadata><?xpacket begin="﻿" id="W5M0MpCehiHzreSzNTczkc9d"?>
<x:xmpmeta xmlns:x="adobe:ns:meta/" x:xmptk="Adobe XMP Core 5.6-c138 79.159824, 2016/09/14-01:09:01        ">
   <rdf:RDF xmlns:rdf="http://www.w3.org/1999/02/22-rdf-syntax-ns#">
      <rdf:Description rdf:about=""/>
   </rdf:RDF>
</x:xmpmeta>
                                                                                                    
                                                                                                    
                                                                                                    
                                                                                                    
                                                                                                    
                                                                                                    
                                                                                                    
                                                                                                    
                                                                                                    
                                                                                                    
                                                                                                    
                                                                                                    
                                                                                                    
                                                                                                    
                                                                                                    
                                                                                                    
                                                                                                    
                                                                                                    
                                                                                                    
                                                                                                    
                           
<?xpacket end="w"?></metadata>
<defs>
    <style>
      .cls-1 {
        fill: #222;
        fill-rule: evenodd;
      }
    </style>
  </defs>
  <path id="user_copy_11" data-name="user copy 11" class="cls-1" d="M1889,48a1,1,0,0,1-1-1,4.981,4.981,0,0,0-1.59-3.636,4.371,4.371,0,0,1-6.82,0A4.944,4.944,0,0,0,1878,47h0a1,1,0,1,1-2,0,6.97,6.97,0,0,1,2.53-5.35A6.946,6.946,0,0,1,1878,39c0-3.314,2.24-6,5-6s5,2.687,5,6a6.767,6.767,0,0,1-.54,2.65A6.947,6.947,0,0,1,1890,47h0A1,1,0,0,1,1889,48Zm-6-13c-1.66,0-3,1.791-3,4s1.34,4,3,4,3-1.791,3-4S1884.66,35,1883,35Z" transform="translate(-1876 -33)"/>
</svg>
